<mxfile host="Electron" agent="Mozilla/5.0 (Windows NT 10.0; Win64; x64) AppleWebKit/537.36 (KHTML, like Gecko) draw.io/28.0.6 Chrome/138.0.7204.100 Electron/37.2.3 Safari/537.36" version="28.0.6">
  <diagram name="Page-1" id="mw876nwdnxL72-RjGhas">
    <mxGraphModel dx="1042" dy="626" grid="1" gridSize="10" guides="1" tooltips="1" connect="1" arrows="1" fold="1" page="1" pageScale="1" pageWidth="850" pageHeight="1100" math="0" shadow="0">
      <root>
        <mxCell id="0" />
        <mxCell id="1" parent="0" />
        <mxCell id="MjynvEGrSxAGxLODNPPC-20" style="edgeStyle=orthogonalEdgeStyle;rounded=0;orthogonalLoop=1;jettySize=auto;html=1;" parent="1" source="MjynvEGrSxAGxLODNPPC-1" edge="1">
          <mxGeometry relative="1" as="geometry">
            <mxPoint x="170" y="390" as="targetPoint" />
          </mxGeometry>
        </mxCell>
        <mxCell id="MjynvEGrSxAGxLODNPPC-1" value="" style="rounded=0;whiteSpace=wrap;html=1;fillColor=none;" parent="1" vertex="1">
          <mxGeometry x="40" y="120" width="80" height="390" as="geometry" />
        </mxCell>
        <mxCell id="MjynvEGrSxAGxLODNPPC-2" value="SOURCES" style="rounded=0;whiteSpace=wrap;html=1;strokeColor=none;" parent="1" vertex="1">
          <mxGeometry x="40" y="110" width="80" height="30" as="geometry" />
        </mxCell>
        <mxCell id="MjynvEGrSxAGxLODNPPC-3" value="" style="image;aspect=fixed;perimeter=ellipsePerimeter;html=1;align=center;shadow=0;dashed=0;spacingTop=3;image=img/lib/active_directory/folder_open.svg;" parent="1" vertex="1">
          <mxGeometry x="50" y="150" width="46" height="50" as="geometry" />
        </mxCell>
        <mxCell id="MjynvEGrSxAGxLODNPPC-4" value="" style="image;aspect=fixed;perimeter=ellipsePerimeter;html=1;align=center;shadow=0;dashed=0;spacingTop=3;image=img/lib/active_directory/folder_open.svg;" parent="1" vertex="1">
          <mxGeometry x="50" y="320" width="46" height="50" as="geometry" />
        </mxCell>
        <mxCell id="MjynvEGrSxAGxLODNPPC-29" style="edgeStyle=orthogonalEdgeStyle;rounded=0;orthogonalLoop=1;jettySize=auto;html=1;entryX=0;entryY=0.25;entryDx=0;entryDy=0;" parent="1" source="MjynvEGrSxAGxLODNPPC-5" target="MjynvEGrSxAGxLODNPPC-9" edge="1">
          <mxGeometry relative="1" as="geometry" />
        </mxCell>
        <mxCell id="MjynvEGrSxAGxLODNPPC-5" value="" style="image;aspect=fixed;html=1;points=[];align=center;fontSize=12;image=img/lib/azure2/general/File.svg;" parent="1" vertex="1">
          <mxGeometry x="65" y="180" width="30" height="36.96" as="geometry" />
        </mxCell>
        <mxCell id="MjynvEGrSxAGxLODNPPC-6" value="" style="image;aspect=fixed;html=1;points=[];align=center;fontSize=12;image=img/lib/azure2/general/Media_File.svg;" parent="1" vertex="1">
          <mxGeometry x="65" y="350" width="30" height="36.92" as="geometry" />
        </mxCell>
        <mxCell id="MjynvEGrSxAGxLODNPPC-7" value="CRM" style="rounded=0;whiteSpace=wrap;html=1;strokeColor=none;" parent="1" vertex="1">
          <mxGeometry x="50" y="230" width="60" height="30" as="geometry" />
        </mxCell>
        <mxCell id="MjynvEGrSxAGxLODNPPC-8" value="ERP" style="rounded=0;whiteSpace=wrap;html=1;strokeColor=none;" parent="1" vertex="1">
          <mxGeometry x="50" y="410" width="65" height="28" as="geometry" />
        </mxCell>
        <mxCell id="MjynvEGrSxAGxLODNPPC-9" value="" style="rounded=0;whiteSpace=wrap;html=1;fillColor=none;" parent="1" vertex="1">
          <mxGeometry x="180" y="150" width="160" height="350" as="geometry" />
        </mxCell>
        <mxCell id="MjynvEGrSxAGxLODNPPC-10" value="BRONZE LAYER" style="rounded=0;whiteSpace=wrap;html=1;fontStyle=1;labelBackgroundColor=default;" parent="1" vertex="1">
          <mxGeometry x="200" y="80" width="120" height="30" as="geometry" />
        </mxCell>
        <mxCell id="MjynvEGrSxAGxLODNPPC-11" value="crm-sales_details" style="rounded=0;whiteSpace=wrap;html=1;labelBackgroundColor=light-dark(#FFFF00,#000000);fontColor=#CC6600;" parent="1" vertex="1">
          <mxGeometry x="200" y="160" width="110" height="30" as="geometry" />
        </mxCell>
        <mxCell id="MjynvEGrSxAGxLODNPPC-12" value="crm_prd_info" style="rounded=0;whiteSpace=wrap;html=1;labelBackgroundColor=#000000;fontColor=#CC6600;" parent="1" vertex="1">
          <mxGeometry x="200" y="260" width="120" height="30" as="geometry" />
        </mxCell>
        <mxCell id="MjynvEGrSxAGxLODNPPC-13" value="erp-cust-az12" style="rounded=0;whiteSpace=wrap;html=1;labelBackgroundColor=#000000;fontColor=#CC6600;" parent="1" vertex="1">
          <mxGeometry x="200" y="330" width="120" height="30" as="geometry" />
        </mxCell>
        <mxCell id="qcE2GgIzWCezorJbyWHN-32" style="edgeStyle=orthogonalEdgeStyle;rounded=0;orthogonalLoop=1;jettySize=auto;html=1;entryX=0;entryY=0.25;entryDx=0;entryDy=0;" parent="1" source="MjynvEGrSxAGxLODNPPC-14" target="qcE2GgIzWCezorJbyWHN-23" edge="1">
          <mxGeometry relative="1" as="geometry" />
        </mxCell>
        <mxCell id="MjynvEGrSxAGxLODNPPC-14" value="crm_cust_info" style="rounded=0;whiteSpace=wrap;html=1;labelBackgroundColor=#000000;fontColor=#CC6600;" parent="1" vertex="1">
          <mxGeometry x="200" y="210" width="120" height="30" as="geometry" />
        </mxCell>
        <mxCell id="MjynvEGrSxAGxLODNPPC-16" value="erp-px_cat_g1v2" style="rounded=0;whiteSpace=wrap;html=1;labelBackgroundColor=#000000;fontColor=#CC6600;" parent="1" vertex="1">
          <mxGeometry x="200" y="430" width="120" height="30" as="geometry" />
        </mxCell>
        <mxCell id="qcE2GgIzWCezorJbyWHN-35" style="edgeStyle=orthogonalEdgeStyle;rounded=0;orthogonalLoop=1;jettySize=auto;html=1;entryX=0;entryY=0.75;entryDx=0;entryDy=0;" parent="1" source="MjynvEGrSxAGxLODNPPC-17" target="qcE2GgIzWCezorJbyWHN-23" edge="1">
          <mxGeometry relative="1" as="geometry" />
        </mxCell>
        <mxCell id="MjynvEGrSxAGxLODNPPC-17" value="erp_loc_a101" style="rounded=0;whiteSpace=wrap;html=1;labelBackgroundColor=#000000;fontColor=#CC6600;" parent="1" vertex="1">
          <mxGeometry x="200" y="380" width="120" height="30" as="geometry" />
        </mxCell>
        <mxCell id="MjynvEGrSxAGxLODNPPC-19" style="edgeStyle=orthogonalEdgeStyle;rounded=0;orthogonalLoop=1;jettySize=auto;html=1;entryX=-0.022;entryY=0.603;entryDx=0;entryDy=0;entryPerimeter=0;" parent="1" target="MjynvEGrSxAGxLODNPPC-9" edge="1">
          <mxGeometry relative="1" as="geometry">
            <mxPoint x="130" y="400" as="sourcePoint" />
          </mxGeometry>
        </mxCell>
        <mxCell id="MjynvEGrSxAGxLODNPPC-22" style="edgeStyle=orthogonalEdgeStyle;rounded=0;orthogonalLoop=1;jettySize=auto;html=1;entryX=-0.002;entryY=0.912;entryDx=0;entryDy=0;entryPerimeter=0;" parent="1" source="MjynvEGrSxAGxLODNPPC-8" target="MjynvEGrSxAGxLODNPPC-9" edge="1">
          <mxGeometry relative="1" as="geometry" />
        </mxCell>
        <mxCell id="MjynvEGrSxAGxLODNPPC-28" style="edgeStyle=orthogonalEdgeStyle;rounded=0;orthogonalLoop=1;jettySize=auto;html=1;entryX=-0.017;entryY=0.105;entryDx=0;entryDy=0;entryPerimeter=0;" parent="1" source="MjynvEGrSxAGxLODNPPC-3" target="MjynvEGrSxAGxLODNPPC-9" edge="1">
          <mxGeometry relative="1" as="geometry" />
        </mxCell>
        <mxCell id="MjynvEGrSxAGxLODNPPC-30" style="edgeStyle=orthogonalEdgeStyle;rounded=0;orthogonalLoop=1;jettySize=auto;html=1;entryX=-0.022;entryY=0.407;entryDx=0;entryDy=0;entryPerimeter=0;" parent="1" source="MjynvEGrSxAGxLODNPPC-5" target="MjynvEGrSxAGxLODNPPC-9" edge="1">
          <mxGeometry relative="1" as="geometry" />
        </mxCell>
        <mxCell id="qcE2GgIzWCezorJbyWHN-23" value="" style="rounded=0;whiteSpace=wrap;html=1;fillColor=none;" parent="1" vertex="1">
          <mxGeometry x="400" y="150" width="170" height="350" as="geometry" />
        </mxCell>
        <mxCell id="qcE2GgIzWCezorJbyWHN-24" value="SILVER LAYER" style="rounded=0;whiteSpace=wrap;html=1;fillColor=none;fontSize=13;fontStyle=1" parent="1" vertex="1">
          <mxGeometry x="425" y="80" width="120" height="30" as="geometry" />
        </mxCell>
        <mxCell id="fQHPbZVxMwXqehMwAvLE-11" style="edgeStyle=orthogonalEdgeStyle;rounded=0;orthogonalLoop=1;jettySize=auto;html=1;entryX=0;entryY=0.5;entryDx=0;entryDy=0;" edge="1" parent="1" source="qcE2GgIzWCezorJbyWHN-25" target="fQHPbZVxMwXqehMwAvLE-4">
          <mxGeometry relative="1" as="geometry" />
        </mxCell>
        <mxCell id="qcE2GgIzWCezorJbyWHN-25" value="&lt;span style=&quot;background-color: light-dark(rgb(213, 232, 212), rgb(0, 0, 0));&quot;&gt;crm_sales_details&lt;/span&gt;" style="rounded=0;whiteSpace=wrap;html=1;labelBackgroundColor=#D5E8D4;fontColor=#D5E8D4;" parent="1" vertex="1">
          <mxGeometry x="425" y="160" width="120" height="30" as="geometry" />
        </mxCell>
        <mxCell id="fQHPbZVxMwXqehMwAvLE-12" style="edgeStyle=orthogonalEdgeStyle;rounded=0;orthogonalLoop=1;jettySize=auto;html=1;entryX=0;entryY=0.5;entryDx=0;entryDy=0;" edge="1" parent="1" source="qcE2GgIzWCezorJbyWHN-26" target="fQHPbZVxMwXqehMwAvLE-5">
          <mxGeometry relative="1" as="geometry" />
        </mxCell>
        <mxCell id="qcE2GgIzWCezorJbyWHN-26" value="crm_cust_info" style="rounded=0;whiteSpace=wrap;html=1;fontColor=#D5E8D4;" parent="1" vertex="1">
          <mxGeometry x="425" y="210" width="120" height="30" as="geometry" />
        </mxCell>
        <mxCell id="fQHPbZVxMwXqehMwAvLE-16" style="edgeStyle=orthogonalEdgeStyle;rounded=0;orthogonalLoop=1;jettySize=auto;html=1;entryX=0;entryY=0.5;entryDx=0;entryDy=0;" edge="1" parent="1" source="qcE2GgIzWCezorJbyWHN-27" target="fQHPbZVxMwXqehMwAvLE-6">
          <mxGeometry relative="1" as="geometry" />
        </mxCell>
        <mxCell id="qcE2GgIzWCezorJbyWHN-27" value="crm-prd-info" style="rounded=0;whiteSpace=wrap;html=1;fontColor=#D5E8D4;" parent="1" vertex="1">
          <mxGeometry x="425" y="260" width="120" height="30" as="geometry" />
        </mxCell>
        <mxCell id="fQHPbZVxMwXqehMwAvLE-14" style="edgeStyle=orthogonalEdgeStyle;rounded=0;orthogonalLoop=1;jettySize=auto;html=1;entryX=0;entryY=0.5;entryDx=0;entryDy=0;" edge="1" parent="1" source="qcE2GgIzWCezorJbyWHN-28" target="fQHPbZVxMwXqehMwAvLE-5">
          <mxGeometry relative="1" as="geometry" />
        </mxCell>
        <mxCell id="qcE2GgIzWCezorJbyWHN-28" value="erp_cust_az12" style="rounded=0;whiteSpace=wrap;html=1;fontColor=#D5E8D4;" parent="1" vertex="1">
          <mxGeometry x="425" y="330" width="120" height="30" as="geometry" />
        </mxCell>
        <mxCell id="fQHPbZVxMwXqehMwAvLE-15" style="edgeStyle=orthogonalEdgeStyle;rounded=0;orthogonalLoop=1;jettySize=auto;html=1;entryX=0;entryY=0.5;entryDx=0;entryDy=0;" edge="1" parent="1" source="qcE2GgIzWCezorJbyWHN-29" target="fQHPbZVxMwXqehMwAvLE-5">
          <mxGeometry relative="1" as="geometry" />
        </mxCell>
        <mxCell id="qcE2GgIzWCezorJbyWHN-29" value="erp_loc-_a101" style="rounded=0;whiteSpace=wrap;html=1;fontColor=#D5E8D4;" parent="1" vertex="1">
          <mxGeometry x="425" y="386.92" width="120" height="30" as="geometry" />
        </mxCell>
        <mxCell id="fQHPbZVxMwXqehMwAvLE-17" style="edgeStyle=orthogonalEdgeStyle;rounded=0;orthogonalLoop=1;jettySize=auto;html=1;entryX=0;entryY=0.5;entryDx=0;entryDy=0;" edge="1" parent="1" source="qcE2GgIzWCezorJbyWHN-30" target="fQHPbZVxMwXqehMwAvLE-6">
          <mxGeometry relative="1" as="geometry" />
        </mxCell>
        <mxCell id="qcE2GgIzWCezorJbyWHN-30" value="erp_px_cat_g1v2" style="rounded=0;whiteSpace=wrap;html=1;fontColor=#D5E8D4;" parent="1" vertex="1">
          <mxGeometry x="425" y="438" width="120" height="30" as="geometry" />
        </mxCell>
        <mxCell id="qcE2GgIzWCezorJbyWHN-31" style="edgeStyle=orthogonalEdgeStyle;rounded=0;orthogonalLoop=1;jettySize=auto;html=1;entryX=-0.012;entryY=0.101;entryDx=0;entryDy=0;entryPerimeter=0;" parent="1" source="MjynvEGrSxAGxLODNPPC-11" target="qcE2GgIzWCezorJbyWHN-23" edge="1">
          <mxGeometry relative="1" as="geometry" />
        </mxCell>
        <mxCell id="qcE2GgIzWCezorJbyWHN-33" style="edgeStyle=orthogonalEdgeStyle;rounded=0;orthogonalLoop=1;jettySize=auto;html=1;entryX=0.002;entryY=0.382;entryDx=0;entryDy=0;entryPerimeter=0;" parent="1" source="MjynvEGrSxAGxLODNPPC-12" target="qcE2GgIzWCezorJbyWHN-23" edge="1">
          <mxGeometry relative="1" as="geometry" />
        </mxCell>
        <mxCell id="qcE2GgIzWCezorJbyWHN-34" style="edgeStyle=orthogonalEdgeStyle;rounded=0;orthogonalLoop=1;jettySize=auto;html=1;entryX=-0.002;entryY=0.599;entryDx=0;entryDy=0;entryPerimeter=0;" parent="1" source="MjynvEGrSxAGxLODNPPC-13" target="qcE2GgIzWCezorJbyWHN-23" edge="1">
          <mxGeometry relative="1" as="geometry" />
        </mxCell>
        <mxCell id="qcE2GgIzWCezorJbyWHN-36" style="edgeStyle=orthogonalEdgeStyle;rounded=0;orthogonalLoop=1;jettySize=auto;html=1;entryX=-0.007;entryY=0.898;entryDx=0;entryDy=0;entryPerimeter=0;" parent="1" source="MjynvEGrSxAGxLODNPPC-16" target="qcE2GgIzWCezorJbyWHN-23" edge="1">
          <mxGeometry relative="1" as="geometry" />
        </mxCell>
        <mxCell id="fQHPbZVxMwXqehMwAvLE-2" value="&lt;span style=&quot;&quot;&gt;GOLD LAYER&lt;/span&gt;" style="rounded=0;whiteSpace=wrap;html=1;fontStyle=0;fontSize=14;" vertex="1" parent="1">
          <mxGeometry x="670" y="80" width="130" height="30" as="geometry" />
        </mxCell>
        <mxCell id="fQHPbZVxMwXqehMwAvLE-3" value="" style="rounded=0;whiteSpace=wrap;html=1;fillColor=none;" vertex="1" parent="1">
          <mxGeometry x="650" y="140" width="170" height="350" as="geometry" />
        </mxCell>
        <mxCell id="fQHPbZVxMwXqehMwAvLE-4" value="fact_sales" style="rounded=0;whiteSpace=wrap;html=1;fontColor=#FFFF33;" vertex="1" parent="1">
          <mxGeometry x="675" y="190" width="120" height="30" as="geometry" />
        </mxCell>
        <mxCell id="fQHPbZVxMwXqehMwAvLE-5" value="dim_customer" style="rounded=0;whiteSpace=wrap;html=1;fontColor=#FFFF33;" vertex="1" parent="1">
          <mxGeometry x="675" y="280" width="120" height="30" as="geometry" />
        </mxCell>
        <mxCell id="fQHPbZVxMwXqehMwAvLE-6" value="dim_products" style="rounded=0;whiteSpace=wrap;html=1;fontColor=#FFFF33;" vertex="1" parent="1">
          <mxGeometry x="680" y="370" width="120" height="30" as="geometry" />
        </mxCell>
      </root>
    </mxGraphModel>
  </diagram>
</mxfile>
